{"title":"Blue.Streak[DVDRip][1999][Eng-Hindi][Dual.Audio]-ahl07","uid":5373883,"size":815598024,"categoryP":"video","categoryS":"movies","magnet":"?xt=urn:btih:08f41d277b2ba5a76979a97bb5f8e4d93dd48d73&amp;dn=Blue.Streak%5BDVDRip%5D%5B1999%5D%5BEng-Hindi%5D%5BDual.Audio%5D-ahl07&amp;tr=udp%3A%2F%2Ftracker.openbittorrent.com%3A80&amp;tr=udp%3A%2F%2Fopen.demonii.com%3A1337&amp;tr=udp%3A%2F%2Ftracker.coppersurfer.tk%3A6969&amp;tr=udp%3A%2F%2Fexodus.desync.com%3A6969","seeders":1,"leechers":0,"uploader":"ahl07","files":-1,"time":1266511952,"description":"HD DESI ROCKERS RELEASES\n\n\nGeneral\nComplete name                    : Blue.Streak[DVDRip][1999][Eng-Hindi][Dual.Audio].mkv\nFormat                           : Matroska\nFile size                        : 778 MiB\nDuration                         : 1h 34mn\nOverall bit rate                 : 1 155 Kbps\nWriting application              : AVI-Mux GUI 1.17.8, Aug 30 2008  12:36:58\nWriting library                  : matroska muxer by Alexander Noe, build date Aug 30 2008\n\nVideo\nID                               : 1\nFormat                           : MPEG-4 Visual\nFormat profile                   : Advanced Simple@L5\nFormat settings, BVOP            : Yes\nFormat settings, QPel            : No\nFormat settings, GMC             : No warppoints\nFormat settings, Matrix          : Default (H.263)\nCodec ID                         : XVID\nCodec ID/Hint                    : XviD\nDuration                         : 1h 34mn\nBit rate                         : 876 Kbps\nWidth                            : 608 pixels\nHeight                           : 320 pixels\nDisplay aspect ratio             : 1.900\nFrame rate                       : 29.970 fps\nColor space                      : YUV\nChroma subsampling               : 4:2:0\nBit depth                        : 8 bits\nScan type                        : Progressive\nBits/(Pixel*Frame)               : 0.150\nStream size                      : 590 MiB (76%)\nWriting library                  : XviD 1.2.0.dev47 (UTC 2006-11-01)\n\nAudio #1\nID                               : 2\nFormat                           : MPEG Audio\nFormat version                   : Version 1\nFormat profile                   : Layer 3\nMode                             : Joint stereo\nCodec ID                         : A_MPEG/L3\nCodec ID/Hint                    : MP3\nDuration                         : 1h 34mn\nBit rate mode                    : Variable\nBit rate                         : 128 Kbps\nChannel(s)                       : 2 channels\nSampling rate                    : 48.0 KHz\nStream size                      : 86.7 MiB (11%)\nWriting library                  : LAME3.90.\nLanguage                         : English\n\nAudio #2\nID                               : 3\nFormat                           : MPEG Audio\nFormat version                   : Version 1\nFormat profile                   : Layer 2\nCodec ID                         : 50\nDuration                         : 1h 34mn\nBit rate mode                    : Constant\nBit rate                         : 128 Kbps\nChannel(s)                       : 2 channels\nSampling rate                    : 44.1 KHz\nStream size                      : 86.2 MiB (11%)\nLanguage                         : Hindi","torrent":{"xt":"urn:btih:08f41d277b2ba5a76979a97bb5f8e4d93dd48d73","amp;dn":"Blue.Streak%5BDVDRip%5D%5B1999%5D%5BEng-Hindi%5D%5BDual.Audio%5D-ahl07","amp;tr":["udp%3A%2F%2Ftracker.openbittorrent.com%3A80","udp%3A%2F%2Fopen.demonii.com%3A1337","udp%3A%2F%2Ftracker.coppersurfer.tk%3A6969","udp%3A%2F%2Fexodus.desync.com%3A6969"],"infoHash":"08f41d277b2ba5a76979a97bb5f8e4d93dd48d73","infoHashBuffer":{"type":"Buffer","data":[8,244,29,39,123,43,165,167,105,121,169,123,181,248,228,217,61,212,141,115]},"announce":[],"urlList":[]}}